REM DIRINDEX 1\2,1\3
REM DIRNAME cjc143,folder01,folder02
TITLE ""
FILE "sample sentencesTrack24.mp3" MP3
  TRACK 01 AUDIO
    TITLE "3:cjc143_3142"
    INDEX 01 00:00:00
  TRACK 02 AUDIO
    TITLE "0:"
    INDEX 01 00:00:68
  TRACK 03 AUDIO
    TITLE "3:cjc143_3143"
    INDEX 01 00:01:38
  TRACK 04 AUDIO
    TITLE "0:"
    INDEX 01 00:04:66
  TRACK 05 AUDIO
    TITLE "3:cjc143_3144"
    INDEX 01 00:06:02
  TRACK 06 AUDIO
    TITLE "0:"
    INDEX 01 00:08:07
  TRACK 07 AUDIO
    TITLE "3:cjc143_3145"
    INDEX 01 00:09:16
  TRACK 08 AUDIO
    TITLE "0:"
    INDEX 01 00:11:40
  TRACK 09 AUDIO
    TITLE "3:cjc143_3146"
    INDEX 01 00:12:50
  TRACK 10 AUDIO
    TITLE "0:"
    INDEX 01 00:15:03
  TRACK 11 AUDIO
    TITLE "3:cjc143_3147"
    INDEX 01 00:16:18
  TRACK 12 AUDIO
    TITLE "0:"
    INDEX 01 00:19:60
  TRACK 13 AUDIO
    TITLE "3:cjc143_3148"
    INDEX 01 00:21:02
  TRACK 14 AUDIO
    TITLE "0:"
    INDEX 01 00:24:39
  TRACK 15 AUDIO
    TITLE "3:cjc143_3149"
    INDEX 01 00:25:46
  TRACK 16 AUDIO
    TITLE "0:"
    INDEX 01 00:28:37
  TRACK 17 AUDIO
    TITLE "3:cjc143_3150"
    INDEX 01 00:29:54
  TRACK 18 AUDIO
    TITLE "0:"
    INDEX 01 00:32:23
  TRACK 19 AUDIO
    TITLE "3:cjc143_3151"
    INDEX 01 00:33:32
  TRACK 20 AUDIO
    TITLE "0:"
    INDEX 01 00:36:68
  TRACK 21 AUDIO
    TITLE "3:cjc143_3152"
    INDEX 01 00:37:73
  TRACK 22 AUDIO
    TITLE "0:"
    INDEX 01 00:40:38
  TRACK 23 AUDIO
    TITLE "3:cjc143_3153"
    INDEX 01 00:41:47
  TRACK 24 AUDIO
    TITLE "0:"
    INDEX 01 00:44:73
  TRACK 25 AUDIO
    TITLE "3:cjc143_3154"
    INDEX 01 00:46:07
  TRACK 26 AUDIO
    TITLE "0:"
    INDEX 01 00:48:30
  TRACK 27 AUDIO
    TITLE "3:cjc143_3155"
    INDEX 01 00:49:39
  TRACK 28 AUDIO
    TITLE "0:"
    INDEX 01 00:51:73
  TRACK 29 AUDIO
    TITLE "3:cjc143_3156"
    INDEX 01 00:53:06
  TRACK 30 AUDIO
    TITLE "0:"
    INDEX 01 00:56:74
  TRACK 31 AUDIO
    TITLE "3:cjc143_3157"
    INDEX 01 00:58:05
  TRACK 32 AUDIO
    TITLE "0:"
    INDEX 01 01:00:45
  TRACK 33 AUDIO
    TITLE "3:cjc143_3158"
    INDEX 01 01:01:50
  TRACK 34 AUDIO
    TITLE "0:"
    INDEX 01 01:04:31
  TRACK 35 AUDIO
    TITLE "3:cjc143_3159"
    INDEX 01 01:05:38
  TRACK 36 AUDIO
    TITLE "0:"
    INDEX 01 01:08:27
  TRACK 37 AUDIO
    TITLE "3:cjc143_3160"
    INDEX 01 01:09:48
  TRACK 38 AUDIO
    TITLE "0:"
    INDEX 01 01:11:31
  TRACK 39 AUDIO
    TITLE "3:cjc143_3161"
    INDEX 01 01:12:44
  TRACK 40 AUDIO
    TITLE "0:"
    INDEX 01 01:14:55
  TRACK 41 AUDIO
    TITLE "3:cjc143_3162"
    INDEX 01 01:15:66
  TRACK 42 AUDIO
    TITLE "0:"
    INDEX 01 01:18:43
  TRACK 43 AUDIO
    TITLE "3:cjc143_3163"
    INDEX 01 01:19:54
  TRACK 44 AUDIO
    TITLE "0:"
    INDEX 01 01:21:74
  TRACK 45 AUDIO
    TITLE "3:cjc143_3164"
    INDEX 01 01:23:11
  TRACK 46 AUDIO
    TITLE "0:"
    INDEX 01 01:27:04
  TRACK 47 AUDIO
    TITLE "3:cjc143_3165"
    INDEX 01 01:28:14
  TRACK 48 AUDIO
    TITLE "0:"
    INDEX 01 01:32:31
  TRACK 49 AUDIO
    TITLE "3:cjc143_3166"
    INDEX 01 01:33:38
  TRACK 50 AUDIO
    TITLE "0:"
    INDEX 01 01:37:46
  TRACK 51 AUDIO
    TITLE "3:cjc143_3167"
    INDEX 01 01:38:55
  TRACK 52 AUDIO
    TITLE "0:"
    INDEX 01 01:42:16
  TRACK 53 AUDIO
    TITLE "3:cjc143_3168"
    INDEX 01 01:43:25
  TRACK 54 AUDIO
    TITLE "0:"
    INDEX 01 01:47:46
  TRACK 55 AUDIO
    TITLE "3:cjc143_3169"
    INDEX 01 01:48:65
  TRACK 56 AUDIO
    TITLE "0:"
    INDEX 01 01:52:08
  TRACK 57 AUDIO
    TITLE "3:cjc143_3170"
    INDEX 01 01:53:21
  TRACK 58 AUDIO
    TITLE "0:"
    INDEX 01 01:57:29
  TRACK 59 AUDIO
    TITLE "3:cjc143_3171"
    INDEX 01 01:58:36
  TRACK 60 AUDIO
    TITLE "0:"
    INDEX 01 02:01:29
  TRACK 61 AUDIO
    TITLE "3:cjc143_3172"
    INDEX 01 02:02:36
  TRACK 62 AUDIO
    TITLE "0:"
    INDEX 01 02:05:23
  TRACK 63 AUDIO
    TITLE "3:cjc143_3173"
    INDEX 01 02:06:48
  TRACK 64 AUDIO
    TITLE "0:"
    INDEX 01 02:09:62
